<?xml version="1.0" encoding="UTF-8" standalone="no"?>
<!DOCTYPE svg PUBLIC "-//W3C//DTD SVG 1.1//EN" "http://www.w3.org/Graphics/SVG/1.1/DTD/svg11.dtd">
<svg width="100%" height="100%" viewBox="0 0 116 127" version="1.1" xmlns="http://www.w3.org/2000/svg" xmlns:xlink="http://www.w3.org/1999/xlink" xml:space="preserve" xmlns:serif="http://www.serif.com/" style="fill-rule:evenodd;clip-rule:evenodd;stroke-linejoin:round;stroke-miterlimit:2;">
    <g transform="matrix(1,0,0,1,-16,0)">
        <g id="ArtBoard2" transform="matrix(1,0,0,1,-0.503716,166.517)">
            <rect x="16.504" y="-166.517" width="115.052" height="126.048" style="fill:none;"/>
            <clipPath id="_clip1">
                <rect x="16.504" y="-166.517" width="115.052" height="126.048"/>
            </clipPath>
            <g clip-path="url(#_clip1)">
                <g transform="matrix(1.33041,0,0,1.33041,-419.712,-323.532)">
                    <g transform="matrix(0.383797,-0.221585,0.221585,0.383797,150.006,156.277)">
                        <path d="M449.87,194.199L427.274,198.176L394.969,191.517L409.5,161L434.5,161L449.87,194.199Z" style="fill:white;"/>
                    </g>
                    <g transform="matrix(0.383797,0.221585,0.221585,-0.383797,150.006,175.234)">
                        <path d="M449.87,194.199L427.274,198.176L394.969,191.517L409.5,161L434.5,161L449.87,194.199Z" style="fill:white;"/>
                    </g>
                    <g transform="matrix(-0.383797,-0.221585,-0.221585,0.383797,592.84,156.277)">
                        <path d="M449.87,194.199L427.274,198.176L394.969,191.517L409.5,161L434.5,161L449.87,194.199Z" style="fill:white;"/>
                    </g>
                    <g transform="matrix(-0.383797,0.221585,-0.221585,-0.383797,592.84,175.234)">
                        <path d="M449.87,194.199L427.274,198.176L394.969,191.517L409.5,161L434.5,161L449.87,194.199Z" style="fill:white;"/>
                    </g>
                    <g transform="matrix(-1.83697e-16,1,-1,-1.83697e-16,584.261,-248.875)">
                        <path d="M432,183L398,183L406.5,169.521L423.5,169.521L432,183Z" style="fill:white;"/>
                    </g>
                    <g transform="matrix(1.83697e-16,1,1,-1.83697e-16,158.739,-248.875)">
                        <path d="M432,183L398,183L406.5,169.521L423.5,169.521L432,183Z" style="fill:white;"/>
                    </g>
                    <path d="M356.321,191.616L337.65,185.159L337.65,146.386L356.318,139.929L356.307,139.929L356.295,139.949L356.277,139.965L356.286,139.965L341.386,165.773L356.286,191.58L356.28,191.58L356.293,191.591L356.307,191.616L356.321,191.616ZM386.169,191.58L401.069,165.773L386.169,139.965L386.178,139.965L386.159,139.949L386.148,139.929L386.137,139.929L404.805,146.386L404.805,185.159L386.14,191.616L386.148,191.616L386.156,191.601L386.181,191.58L386.169,191.58ZM383.661,191.616L371.23,202.393L358.8,191.616L383.661,191.616ZM357.871,142.638L384.584,142.638L397.941,165.773L384.584,188.907L357.871,188.907L344.514,165.773L357.871,142.638ZM371.227,149.749C380.071,149.749 387.251,156.929 387.251,165.773C387.251,174.616 380.071,181.796 371.227,181.796C362.384,181.796 355.204,174.616 355.204,165.773C355.204,156.929 362.384,149.749 371.227,149.749ZM383.659,139.929L358.797,139.929L371.23,129.571L383.659,139.929Z" style="fill:white;"/>
                    <g transform="matrix(1,0,0,1,-0.761312,0.606081)">
                        <circle cx="371.989" cy="165.149" r="13.116" style="fill:white;"/>
                    </g>
                </g>
            </g>
        </g>
    </g>
</svg>
