<?xml version="1.0" encoding="UTF-8" standalone="no"?>
<!DOCTYPE svg PUBLIC "-//W3C//DTD SVG 1.1//EN" "http://www.w3.org/Graphics/SVG/1.1/DTD/svg11.dtd">
<svg width="100%" height="100%" viewBox="0 0 203 324" version="1.1" xmlns="http://www.w3.org/2000/svg" xmlns:xlink="http://www.w3.org/1999/xlink" xml:space="preserve" xmlns:serif="http://www.serif.com/" style="fill-rule:evenodd;clip-rule:evenodd;stroke-linejoin:round;stroke-miterlimit:2;">
    <g id="ArtBoard1" transform="matrix(1,0,0,1,-58.8933,-89.3281)">
        <rect x="58.893" y="89.328" width="202.372" height="323.32" style="fill:none;"/>
        <g transform="matrix(1.62241,0,0,1.62241,-4.08582,-11.2909)">
            <path d="M140.648,90.597C140.648,86.677 137.465,83.494 133.545,83.494L68.827,83.494C64.906,83.494 61.723,86.677 61.723,90.597L61.723,232.723C61.723,236.643 64.906,239.826 68.827,239.826L133.545,239.826C137.465,239.826 140.648,236.643 140.648,232.723L140.648,90.597ZM101.186,229.037C103.309,229.037 105.032,230.761 105.032,232.883C105.032,235.006 103.309,236.729 101.186,236.729C99.063,236.729 97.34,235.006 97.34,232.883C97.34,230.761 99.063,229.037 101.186,229.037ZM135.498,96.551C135.498,93.142 132.73,90.375 129.321,90.375L73.05,90.375C69.641,90.375 66.874,93.142 66.874,96.551L66.874,220.126C66.874,223.535 69.641,226.302 73.05,226.302L129.321,226.302C132.73,226.302 135.498,223.535 135.498,220.126L135.498,96.551Z" style="fill:rgb(180,120,217);"/>
        </g>
        <g transform="matrix(0.0282676,0,0,0.0282676,101.495,19.6444)">
            <path d="M2073,6510.31C2917.19,6510.98 3643.68,7347.19 3643.68,7347.19L3641.57,7349.59C3598.22,7398.58 2890.82,8183.45 2073,8184.07L2073,8184.07L2072.49,8184.07L2071.96,8184.07L2071.96,8184.07C1227.77,8183.4 501.274,7347.19 501.274,7347.19L503.385,7344.79C546.74,7295.81 1254.13,6510.94 2071.96,6510.31L2071.96,6510.31L2072.47,6510.31L2073,6510.31L2073,6510.31ZM2071.96,8076.09C1669.75,8075.5 1343.43,7749.12 1343.43,7347.19C1343.43,6962.72 1642.02,6647.38 2019.92,6620.2L2019.92,6619.61C1931.11,6624.05 1842.19,6639.63 1755.01,6663.9C1489.32,6717.79 1338.86,6850.62 1253.65,6985C1164.19,7115.25 1139.33,7282.01 1139.33,7362.32C1139.33,7424.77 1088.58,7475.48 1026.07,7475.48C963.566,7475.48 912.817,7424.77 912.817,7362.32C912.817,7267.57 926.934,7182.2 949.665,7106.17C781.581,7239.1 676.911,7347.19 676.911,7347.19L678.959,7349.29C720.96,7391.99 1404.27,8076.1 2071.96,8076.09L2071.96,8076.09ZM2073,6618.3L2073,6618.3C2475.2,6618.88 2801.53,6945.27 2801.53,7347.19C2801.53,7731.66 2502.93,8047.01 2125.04,8074.19L2125.04,8074.78C2213.85,8070.34 2302.77,8054.76 2389.95,8030.48C2655.63,7976.6 2806.1,7843.77 2891.3,7709.39C2980.76,7579.14 3005.62,7412.38 3005.62,7332.06C3005.62,7269.61 3056.37,7218.91 3118.88,7218.91C3181.39,7218.91 3232.14,7269.61 3232.14,7332.06C3232.14,7426.82 3218.02,7512.18 3195.29,7588.21C3363.38,7455.28 3468.05,7347.19 3468.05,7347.19L3466,7345.1C3423.99,7302.4 2740.69,6618.28 2073,6618.3ZM2072.48,6839.05C2352.94,6839.32 2580.57,7066.91 2580.57,7347.19C2580.57,7627.48 2352.94,7855.06 2072.48,7855.34C1792.02,7855.06 1564.39,7627.48 1564.39,7347.19C1564.39,7066.91 1792.02,6839.32 2072.48,6839.05ZM2072.48,7045.74L2073,7045.74L2073,7045.74C2239.05,7046.3 2373.69,7181.16 2373.69,7347.19C2373.69,7513.22 2239.05,7648.08 2073,7648.65L2073,7648.65L2072.48,7648.65L2071.96,7648.65L2071.96,7648.65C1905.9,7648.08 1771.27,7513.22 1771.27,7347.19C1771.27,7181.16 1905.9,7046.3 2071.96,7045.74L2071.96,7045.74L2072.48,7045.74ZM2072.48,7234.71C2134.38,7234.99 2184.54,7285.28 2184.54,7347.19C2184.54,7409.1 2134.38,7459.4 2072.48,7459.68C2010.58,7459.4 1960.41,7409.1 1960.41,7347.19C1960.41,7285.28 2010.58,7234.99 2072.48,7234.71Z" style="fill:rgb(180,120,217);"/>
        </g>
    </g>
</svg>
