<?xml version="1.0" encoding="UTF-8" standalone="no"?>
<!DOCTYPE svg PUBLIC "-//W3C//DTD SVG 1.1//EN" "http://www.w3.org/Graphics/SVG/1.1/DTD/svg11.dtd">
<svg width="100%" height="100%" viewBox="0 0 485 485" version="1.1" xmlns="http://www.w3.org/2000/svg" xmlns:xlink="http://www.w3.org/1999/xlink" xml:space="preserve" xmlns:serif="http://www.serif.com/" style="fill-rule:evenodd;clip-rule:evenodd;stroke-linejoin:round;stroke-miterlimit:2;">
    <g transform="matrix(1.33333,0,0,1.33333,-4537.33,-2637.33)">
        <g id="ArtBoard8" transform="matrix(1,0,0,1,-0.0620559,-0.743564)">
            <rect x="3403.06" y="1978.74" width="363.256" height="363.256" style="fill:none;"/>
            <g transform="matrix(0.865711,0,0,0.865711,3238.41,1900.66)">
                <path d="M400.549,207.001C491.172,207.36 569.454,294.292 574.266,299.733L574.5,300C574.5,300 494.1,392.628 400.549,392.999L400,393C306.223,393 225.5,300 225.5,300L225.734,299.733C230.55,294.287 309.149,207 400,207L400.549,207.001ZM399.972,219C379.718,218.983 359.332,224.646 340.308,232.984C333.909,236.533 320.798,244.716 311.266,256.724C299.508,271.535 296.34,292.12 296.34,301.681C296.34,308.621 290.706,314.256 283.766,314.256C276.826,314.256 271.191,308.621 271.191,301.681C271.191,291.151 272.759,281.665 275.282,273.216C256.621,287.988 245,300 245,300L245.227,300.233C249.892,304.98 325.815,381.063 399.973,381C355.28,380.986 319,344.696 319,300C319,255.304 355.28,219.014 399.972,219ZM400.028,219C444.72,219.014 481,255.304 481,300C481,344.696 444.72,380.986 400.027,381C419.857,381.017 439.813,375.589 458.502,367.533C465.369,363.523 476.893,355.8 485.5,344.958C497.258,330.146 500.426,309.561 500.426,300C500.426,293.06 506.06,287.426 513,287.426C519.94,287.426 525.574,293.06 525.574,300C525.574,310.995 523.866,320.852 521.143,329.579C540.3,314.782 552.954,302.084 554.773,300.233L555,300C555,300 476.574,218.936 400.028,219ZM400,243.532C431.166,243.532 456.468,268.834 456.468,300C456.468,331.166 431.166,356.468 400,356.468C368.834,356.468 343.532,331.166 343.532,300C343.532,268.834 368.834,243.532 400,243.532ZM400,266.5C418.489,266.5 433.5,281.511 433.5,300C433.5,318.489 418.489,333.5 400,333.5C381.511,333.5 366.5,318.489 366.5,300C366.5,281.511 381.511,266.5 400,266.5ZM400,287.5C406.899,287.5 412.5,293.101 412.5,300C412.5,306.899 406.899,312.5 400,312.5C393.101,312.5 387.5,306.899 387.5,300C387.5,293.101 393.101,287.5 400,287.5Z" style="fill:white;"/>
            </g>
            <g transform="matrix(1,0,0,1,0.0620559,0.743564)">
                <path d="M3766.26,2068.81C3766.26,2018.69 3725.56,1978 3675.44,1978L3493.81,1978C3443.69,1978 3403,2018.69 3403,2068.81L3403,2250.44C3403,2300.56 3443.69,2341.26 3493.81,2341.26L3675.44,2341.26C3725.56,2341.26 3766.26,2300.56 3766.26,2250.44L3766.26,2068.81ZM3750.7,2076.6C3750.7,2030.77 3713.49,1993.56 3667.66,1993.56L3501.6,1993.56C3455.77,1993.56 3418.56,2030.77 3418.56,2076.6L3418.56,2242.66C3418.56,2288.49 3455.77,2325.7 3501.6,2325.7L3667.66,2325.7C3713.49,2325.7 3750.7,2288.49 3750.7,2242.66L3750.7,2076.6Z" style="fill:white;"/>
            </g>
        </g>
    </g>
</svg>
