<?xml version="1.0" encoding="UTF-8" standalone="no"?>
<!DOCTYPE svg PUBLIC "-//W3C//DTD SVG 1.1//EN" "http://www.w3.org/Graphics/SVG/1.1/DTD/svg11.dtd">
<svg width="100%" height="100%" viewBox="0 0 119 119" version="1.1" xmlns="http://www.w3.org/2000/svg" xmlns:xlink="http://www.w3.org/1999/xlink" xml:space="preserve" xmlns:serif="http://www.serif.com/" style="fill-rule:evenodd;clip-rule:evenodd;stroke-linejoin:round;stroke-miterlimit:2;">
    <g transform="matrix(1,0,0,1,0,-167)">
        <g id="ArtBoard3" transform="matrix(1,0,0,1,318.409,31.8772)">
            <rect x="-318.409" y="135.123" width="118.877" height="118.877" style="fill:none;"/>
            <clipPath id="_clip1">
                <rect x="-318.409" y="135.123" width="118.877" height="118.877"/>
            </clipPath>
            <g clip-path="url(#_clip1)">
                <g transform="matrix(1,0,0,1,-318.409,-31.8772)">
                    <path d="M119.468,226.561L60.03,167.123L0.591,226.561L60.03,286L119.468,226.561ZM53.958,225.325L64.919,255.439L75.069,255.439L75.069,197.439L64.919,197.439L64.919,227.552L53.958,197.439L43.808,197.439L43.808,255.439L53.958,255.439L53.958,225.325Z" style="fill:white;"/>
                </g>
            </g>
        </g>
    </g>
</svg>
