<?xml version="1.0" encoding="UTF-8" standalone="no"?>
<!DOCTYPE svg PUBLIC "-//W3C//DTD SVG 1.1//EN" "http://www.w3.org/Graphics/SVG/1.1/DTD/svg11.dtd">
<svg width="100%" height="100%" viewBox="0 0 149 118" version="1.1" xmlns="http://www.w3.org/2000/svg" xmlns:xlink="http://www.w3.org/1999/xlink" xml:space="preserve" xmlns:serif="http://www.serif.com/" style="fill-rule:evenodd;clip-rule:evenodd;stroke-linejoin:round;stroke-miterlimit:2;">
    <g transform="matrix(1,0,0,1,0,-167)">
        <g id="ArtBoard1" transform="matrix(1,0,0,1,245.283,121.254)">
            <rect x="-245.283" y="45.746" width="148.06" height="118" style="fill:none;"/>
            <clipPath id="_clip1">
                <rect x="-245.283" y="45.746" width="148.06" height="118"/>
            </clipPath>
            <g clip-path="url(#_clip1)">
                <g transform="matrix(1,0,0,1,-398.043,-57.5078)">
                    <g transform="matrix(1,0,0,1,152.76,-63.7461)">
                        <path d="M78.536,249.283L97.658,249.283C101.234,249.283 104.115,246.402 104.115,242.827L104.115,236.52C104.115,232.945 101.234,230.064 97.658,230.064L80.67,230.064C80.617,230.064 80.617,230.064 80.617,230.01L80.617,224.236C80.617,224.183 80.617,224.183 80.67,224.183L95.523,224.183C95.577,224.183 95.577,224.183 95.577,224.236L95.577,228.353C95.577,228.674 95.897,228.941 96.217,228.888L103.635,227.979C103.902,227.925 104.115,227.711 104.115,227.444L104.115,223.702C104.115,220.128 101.234,217.246 97.658,217.246L78.536,217.246C74.96,217.246 72.078,220.128 72.078,223.702L72.078,231.078C72.078,234.653 74.96,237.534 78.536,237.534L95.523,237.534C95.577,237.534 95.577,237.534 95.577,237.587L95.577,242.294C95.577,242.347 95.577,242.347 95.523,242.347L80.67,242.347C80.617,242.347 80.617,242.347 80.617,242.294L80.617,239.245C80.617,238.924 80.297,238.657 79.976,238.711L72.559,239.62C72.292,239.673 72.078,239.887 72.078,240.155L72.078,242.827C72.078,246.402 74.96,249.283 78.536,249.283ZM113.249,249.283L133.44,249.283C137.015,249.283 139.897,246.402 139.897,242.827L139.897,231.666C139.897,231.345 139.684,231.132 139.363,231.132L127.832,231.132C127.512,231.132 127.245,231.452 127.298,231.772L128.206,238.122C128.26,238.442 128.474,238.602 128.741,238.602L131.359,238.602L131.359,241.76C131.359,241.813 131.359,241.813 131.305,241.813L115.384,241.813C115.33,241.813 115.33,241.813 115.33,241.76L115.33,224.77C115.33,224.717 115.33,224.717 115.384,224.717L131.305,224.717C131.359,224.717 131.359,224.717 131.359,224.77L131.359,228.405C131.359,228.726 131.626,228.94 131.946,228.94L139.417,228.512C139.684,228.512 139.897,228.245 139.897,227.978L139.897,223.703C139.897,220.128 137.015,217.246 133.44,217.246L113.249,217.246C109.674,217.246 106.792,220.128 106.792,223.703L106.792,242.827C106.792,246.402 109.674,249.283 113.249,249.283Z" style="fill:white;fill-rule:nonzero;"/>
                    </g>
                    <path d="M249.619,189.794L223.5,222L153.477,135.658L178.183,104L268.817,104L293.523,135.658L282.501,149.249L261.055,149.249L269.523,138.807L253.285,118L193.715,118L177.477,138.807L223.5,195.556L228.173,189.794L249.619,189.794Z" style="fill:white;"/>
                </g>
            </g>
        </g>
    </g>
</svg>
